<?xml version="1.0" encoding="utf-8"?>
<!-- Generator: Adobe Illustrator 27.2.0, SVG Export Plug-In . SVG Version: 6.00 Build 0)  -->
<svg version="1.1" id="Layer_1" xmlns="http://www.w3.org/2000/svg" xmlns:xlink="http://www.w3.org/1999/xlink" x="0px" y="0px"
	 viewBox="0 0 500 500" style="enable-background:new 0 0 500 500;" xml:space="preserve">
<style type="text/css">
	.st0{fill:#6BCEAA;}
	.st1{fill:#FFFFFF;}
	.st2{fill:#020202;}
</style>
<g>
	<g transform="translate(166.316418, 186.740539)">
	</g>
</g>
<g>
	<g>
		<g transform="translate(93.271813, 234.724761)">
			<g>
				<path class="st0" d="M-0.2-100.3v-6.7h129.9v6.7h-7.9c-7.2,0-13,1.3-17.3,3.8c-3,1.7-5.4,4.6-7.2,8.7c-1.3,2.9-2,10.5-2,22.7
					V54.5c0,23.4-2.4,40.4-7.1,51.1c-4.7,10.6-13,19.5-25,26.7c-11.9,7.1-26.3,10.7-43.1,10.7c-20.5,0-37.1-5.4-49.8-16.2
					c-12.7-10.8-19-22.8-19-35.9c0-8.4,2.6-15.2,7.7-20.4c5.2-5.2,11.5-7.9,18.9-7.9c7.3,0,13.5,2.4,18.5,7.1
					c5,4.7,7.5,10.4,7.5,17.3c0,3.4-0.4,6.3-1.3,8.8c-0.5,1.2-2.4,4.3-5.7,9.1c-3.3,4.9-5,8.3-5,10.4c0,3.1,1.5,5.8,4.7,8.1
					c4.6,3.4,10.5,5.1,17.8,5.1c5.2,0,9.4-1.3,12.8-4c3.4-2.7,5.7-6.8,7.1-12.4c1.4-5.6,2.1-21.1,2.1-46.6V-65.2
					c0-12.5-0.7-20.3-2.1-23.4c-1.4-3.1-4.1-5.9-8.1-8.2c-4-2.4-9.4-3.5-16.3-3.5H-0.2z"/>
			</g>
		</g>
	</g>
	<g>
		<g transform="translate(191.697473, 234.724761)">
			<g>
				<path class="st0" d="M246.6-112.6l2,81.5h-7.4c-3.5-20.4-12.1-36.8-25.7-49.3c-13.6-12.4-28.4-18.7-44.2-18.7
					c-12.3,0-22,3.3-29.1,9.8c-7.2,6.6-10.7,14.1-10.7,22.6c0,5.4,1.3,10.2,3.8,14.4c3.5,5.7,9.1,11.2,16.8,16.7
					c5.6,4,18.7,11,39.1,21.1C219.7-0.3,239,13,249,25.4c9.8,12.5,14.7,26.8,14.7,42.9c0,20.4-8,38-23.9,52.7
					c-15.9,14.7-36.1,22.1-60.6,22.1c-7.7,0-15-0.8-21.8-2.4c-6.8-1.6-15.4-4.5-25.8-8.8c-5.8-2.4-10.5-3.6-14.2-3.6
					c-3.1,0-6.4,1.2-9.9,3.6c-3.5,2.4-6.3,6.1-8.5,11h-6.7V50.7H99c5.3,25.9,15.5,45.7,30.6,59.4c15.1,13.6,31.3,20.4,48.7,20.4
					c13.5,0,24.2-3.7,32.2-11c8-7.3,12-15.9,12-25.6c0-5.8-1.5-11.3-4.6-16.7c-3.1-5.4-7.7-10.6-14-15.4c-6.3-4.9-17.3-11.2-33.2-19
					c-22.2-10.9-38.2-20.2-47.9-27.9c-9.7-7.7-17.2-16.3-22.4-25.8c-5.2-9.5-7.8-20-7.8-31.4c0-19.4,7.1-36,21.4-49.7
					c14.3-13.7,32.3-20.6,54.1-20.6c7.9,0,15.6,1,23.1,2.9c5.6,1.5,12.5,4.1,20.6,8c8.1,3.9,13.8,5.8,17.1,5.8c3.1,0,5.6-1,7.4-2.9
					c1.8-1.9,3.5-6.6,5.1-13.9H246.6z"/>
			</g>
		</g>
	</g>
	<g>
		<path class="st1" d="M97.9,216.6h354.4v66.5H97.9V216.6"/>
		<g>
			<g transform="translate(119.659517, 186.740539)">
				<g>
					<path class="st2" d="M14,68.9V47.2h-3v21.6c0,1.8-0.7,3.1-2.1,3.8c-1.1,0.7-2.5,0.9-4.2,0.7c-1.5-0.2-2.7-0.6-3.5-1.3v3.3
						c0.2,0.2,0.8,0.5,1.5,0.7c0.8,0.2,1.6,0.3,2.5,0.3c2.3,0.1,4.2-0.4,5.7-1.4C13,73.7,14,71.6,14,68.9z"/>
				</g>
			</g>
		</g>
		<g>
			<g transform="translate(131.518714, 186.740539)">
				<g>
					<path class="st2" d="M44.8,61.5c0,3.3-1.2,6.1-3.5,8.4c-2.3,2.3-5.1,3.5-8.4,3.5c-3.3,0-6-1.1-8.3-3.5
						c-2.3-2.3-3.5-5.1-3.5-8.4c0-3.2,1.1-6,3.5-8.3c2.3-2.3,5.1-3.5,8.3-3.5c3.3,0,6,1.2,8.4,3.5C43.6,55.5,44.8,58.3,44.8,61.5z
						 M47.7,61.5c0-2-0.4-3.9-1.2-5.7c-0.8-1.8-1.8-3.3-3.2-4.7c-1.4-1.3-2.9-2.4-4.7-3.1c-1.8-0.8-3.7-1.2-5.7-1.2
						c-2,0-4,0.4-5.7,1.2c-1.8,0.8-3.3,1.8-4.7,3.1c-1.3,1.3-2.4,2.9-3.2,4.7c-0.8,1.8-1.1,3.7-1.1,5.7c0,2,0.4,4,1.1,5.8
						c0.8,1.8,1.8,3.4,3.2,4.7c1.4,1.4,2.9,2.4,4.7,3.2c1.8,0.8,3.7,1.1,5.7,1.1c2,0,3.9-0.4,5.7-1.1c1.8-0.8,3.3-1.8,4.7-3.2
						c1.4-1.4,2.4-2.9,3.2-4.7C47.3,65.5,47.7,63.5,47.7,61.5z"/>
				</g>
			</g>
		</g>
		<g>
			<g transform="translate(151.233478, 186.740539)">
				<g>
					<path class="st2" d="M63.4,68c0-2-0.5-3.8-1.5-5.1c-1-1.4-2.4-2.3-4-2.7c1-0.4,1.8-1.2,2.4-2.3c0.3-0.5,0.5-1,0.7-1.6
						c0.2-0.5,0.2-1.3,0.2-2.3c0-0.9-0.2-1.9-0.7-2.8c-1.3-2.6-4-3.9-8.2-3.9h-7.8V76h8.8c2.9,0,5.2-0.6,7-2
						c0.9-0.7,1.6-1.6,2.2-2.7C63.1,70.3,63.4,69.2,63.4,68z M58.4,54.4c0,1.6-0.5,2.7-1.4,3.5C56,58.6,54.8,59,53.3,59h-5.7v-9h4.8
						C56.4,50.1,58.4,51.5,58.4,54.4z M60.5,67.4c0,1.7-0.6,3.1-1.8,4.2c-1.1,1.1-2.6,1.6-4.4,1.6h-6.7V62h7.1
						c1.5,0,2.8,0.5,3.9,1.5c0.5,0.5,0.9,1,1.3,1.6C60.3,65.8,60.5,66.5,60.5,67.4z"/>
				</g>
			</g>
		</g>
		<g>
			<g transform="translate(176.415526, 186.740539)">
				<g>
					<path class="st2" d="M84.8,62.4c3.7,0.9,6.3,1.9,7.6,3c0.9,0.8,1.4,1.7,1.4,2.9c0,1.2-0.2,2.2-0.8,2.8
						c-1.3,1.8-3.6,2.7-6.8,2.7c-4.5,0-7-1.5-7.6-4.6h-3.5c1,4.9,4.7,7.3,11,7.3c2.8,0,5.2-0.6,7.1-1.9c2.3-1.5,3.5-3.7,3.5-6.5
						c0-2.4-0.9-4.2-2.8-5.4c-1.3-0.9-3.4-1.8-6.3-2.5c-3-0.8-4.9-1.4-5.7-1.9c-1.9-1-2.9-2.3-2.9-4.1c0-0.9,0.2-1.7,0.6-2.3
						c1.1-1.6,3-2.5,5.8-2.5c3.9,0,6.2,1.3,6.8,3.7h3.2c-1.1-4.1-4.4-6.3-10-6.3c-2.5,0-4.8,0.7-6.6,2c-1.9,1.4-2.9,3.3-2.9,6
						C76.1,58.5,79,61.1,84.8,62.4z"/>
				</g>
			</g>
		</g>
		<g>
			<g transform="translate(192.146922, 186.740539)">
				<g>
					<path class="st2" d="M123.4,67.2h-3.3c-1,1.9-2.4,3.4-4.2,4.5c-1.8,1.1-3.8,1.7-5.9,1.7c-3.2,0-5.9-1.1-8.1-3.5
						c-2.2-2.2-3.3-5-3.3-8.2c0-3.2,1.1-6,3.3-8.2c1-1.1,2.2-1.9,3.6-2.5c1.4-0.6,2.7-1,4.1-1c1.3,0,2.5,0.2,3.5,0.5
						c3.1,0.9,5.4,2.8,7,5.6h3.3c-1.1-2.7-2.8-4.9-5.2-6.6c-2.4-1.7-5.1-2.5-8-2.5c-4,0-7.4,1.5-10.2,4.4c-1.3,1.3-2.3,3-3,4.7
						c-0.8,1.8-1.1,3.7-1.1,5.7c0,4.1,1.4,7.5,4.1,10.3c2.8,3,6.2,4.4,10.2,4.4c2.9,0,5.6-0.8,8.1-2.5
						C120.6,72.2,122.3,70,123.4,67.2z"/>
				</g>
			</g>
		</g>
		<g>
			<g transform="translate(210.750042, 186.740539)">
				<g>
					<path class="st2" d="M146.1,61.5c0,3.3-1.2,6.1-3.5,8.4c-2.3,2.3-5.1,3.5-8.4,3.5c-3.3,0-6-1.1-8.3-3.5
						c-2.3-2.3-3.5-5.1-3.5-8.4c0-3.2,1.1-6,3.5-8.3c2.3-2.3,5.1-3.5,8.3-3.5c3.3,0,6,1.2,8.4,3.5C145,55.5,146.1,58.3,146.1,61.5z
						 M149.1,61.5c0-2-0.4-3.9-1.2-5.7c-0.8-1.8-1.8-3.3-3.2-4.7c-1.4-1.3-2.9-2.4-4.7-3.1c-1.8-0.8-3.7-1.2-5.7-1.2
						c-2,0-4,0.4-5.7,1.2c-1.8,0.8-3.3,1.8-4.7,3.1c-1.3,1.3-2.4,2.9-3.2,4.7c-0.8,1.8-1.1,3.7-1.1,5.7c0,2,0.4,4,1.1,5.8
						c0.8,1.8,1.8,3.4,3.2,4.7c1.4,1.4,2.9,2.4,4.7,3.2c1.8,0.8,3.7,1.1,5.7,1.1c2,0,3.9-0.4,5.7-1.1c1.8-0.8,3.3-1.8,4.7-3.2
						c1.4-1.4,2.4-2.9,3.2-4.7C148.7,65.5,149.1,63.5,149.1,61.5z"/>
				</g>
			</g>
		</g>
		<g>
			<g transform="translate(230.4648, 186.740539)">
				<g>
					<path class="st2" d="M166.8,66.5V47.2h-3v19.6c0,1.2-0.2,2.2-0.6,3c-1.2,2.4-3.6,3.6-7.1,3.6c-2.3,0-4.1-0.5-5.4-1.5
						c-1.6-1.1-2.3-2.8-2.3-5V47.2h-3v19.2c0,3.1,1,5.6,3,7.3c1.9,1.7,4.5,2.5,7.7,2.5c3.2,0,5.7-0.8,7.6-2.5
						C165.8,72,166.8,69.6,166.8,66.5z"/>
				</g>
			</g>
		</g>
		<g>
			<g transform="translate(247.178139, 186.740539)">
				<g>
					<path class="st2" d="M165.1,49.9h7v26h3v-26h7v-2.8h-16.9V49.9z"/>
				</g>
			</g>
		</g>
	</g>
</g>
</svg>
